<svg width="411" height="98" viewBox="0 0 411 98" fill="none" xmlns="http://www.w3.org/2000/svg">
<rect x="13" y="1.5" width="28" height="94" rx="11" fill="#7E3AF0"/>
<rect y="1.5" width="10" height="94" rx="5" fill="#7E3AF0"/>
<path d="M410.126 50.75C410.126 71.49 399.473 81.86 378.166 81.86C356.859 81.86 346.206 71.49 346.206 50.75C346.206 30.01 356.859 19.64 378.166 19.64C399.473 19.64 410.126 30.01 410.126 50.75ZM378.166 30.86C365.926 30.86 359.806 37.49 359.806 50.75C359.806 64.01 365.926 70.64 378.166 70.64C390.406 70.64 396.526 64.01 396.526 50.75C396.526 37.49 390.406 30.86 378.166 30.86Z" fill="#1F1529"/>
<path d="M345.031 33.92C344.748 33.8067 344.21 33.6083 343.416 33.325C342.623 32.985 342.113 32.7867 341.886 32.73C341.716 32.6167 341.32 32.4467 340.696 32.22C340.073 31.9933 339.648 31.8517 339.421 31.795C339.195 31.7383 338.826 31.6533 338.316 31.54C337.806 31.37 337.381 31.285 337.041 31.285C336.758 31.2283 336.333 31.1717 335.766 31.115C335.256 31.0017 334.746 30.945 334.236 30.945C333.726 30.945 333.16 30.945 332.536 30.945C331.913 30.8883 331.205 30.86 330.411 30.86C326.898 30.86 323.64 31.71 320.636 33.41C317.69 35.0533 315.678 37.3767 314.601 40.38V80.5H301.511V21H314.601V31.2C318.228 23.4933 325.113 19.64 335.256 19.64C337.183 19.64 339.336 19.8667 341.716 20.32C344.153 20.7167 346.108 21.2267 347.581 21.85L345.031 33.92Z" fill="#1F1529"/>
<path d="M283.246 16.75V9.95001H296.336V16.75H283.246ZM296.336 21V80.5H283.246V21H296.336Z" fill="#1F1529"/>
<path d="M216.169 29.16C213.506 29.16 211.183 29.8683 209.199 31.285C207.216 32.645 205.686 34.5433 204.609 36.98V80.5H191.519V21H204.609V29.075C207.726 22.785 213.194 19.64 221.014 19.64C229.911 19.64 235.974 23.2667 239.204 30.52C242.491 23.2667 248.668 19.64 257.734 19.64C262.041 19.64 265.724 20.5183 268.784 22.275C271.901 24.0317 274.338 26.7517 276.094 30.435C277.851 34.0617 278.729 38.5667 278.729 43.95V80.5H265.639V43.95C265.639 39.3033 264.619 35.6767 262.579 33.07C260.596 30.4633 257.479 29.16 253.229 29.16C250.793 29.16 248.413 29.7267 246.089 30.86C243.823 31.9933 242.066 33.5233 240.819 35.45C241.386 37.8867 241.669 40.72 241.669 43.95V80.5H228.579V43.95C228.579 40.89 228.154 38.2833 227.304 36.13C226.511 33.9767 225.151 32.2767 223.224 31.03C221.354 29.7833 219.003 29.16 216.169 29.16Z" fill="#1F1529"/>
<path d="M125.473 53.3C125.473 48.4267 126.125 44.1767 127.428 40.55C128.731 36.8667 130.573 33.8917 132.953 31.625C135.39 29.3017 138.251 27.5733 141.538 26.44C144.825 25.3067 148.508 24.74 152.588 24.74C158.141 24.74 162.561 25.675 165.848 27.545C169.135 29.415 171.6 32.135 173.243 35.705V16.75H186.333V80.5H173.243V70.895C171.6 74.465 169.135 77.185 165.848 79.055C162.561 80.925 158.141 81.86 152.588 81.86C149.301 81.86 146.27 81.4917 143.493 80.755C140.773 80.075 138.28 78.9983 136.013 77.525C133.803 75.995 131.905 74.125 130.318 71.915C128.788 69.705 127.598 67.0417 126.748 63.925C125.898 60.7517 125.473 57.21 125.473 53.3ZM157.433 72.34C161.343 72.34 164.658 71.405 167.378 69.535C170.098 67.665 172.053 65.1433 173.243 61.97V44.63C172.053 41.4567 170.098 38.935 167.378 37.065C164.658 35.195 161.343 34.26 157.433 34.26C151.37 34.26 146.78 35.9033 143.663 39.19C140.603 42.42 139.073 47.1233 139.073 53.3C139.073 59.4767 140.603 64.2083 143.663 67.495C146.78 70.725 151.37 72.34 157.433 72.34Z" fill="#1F1529"/>
<path d="M123.605 80.5H110.515V70.555C107.002 78.0917 99.5783 81.86 88.245 81.86C80.8217 81.86 75.07 80.16 70.99 76.76C66.9667 73.36 64.955 68.94 64.955 63.5C64.955 61.8 65.125 60.2133 65.465 58.74C65.8617 57.21 66.3433 55.8783 66.91 54.745C67.5333 53.555 68.3267 52.4783 69.29 51.515C70.2533 50.495 71.2167 49.645 72.18 48.965C73.1433 48.2283 74.305 47.5483 75.665 46.925C77.0817 46.245 78.3567 45.7067 79.49 45.31C80.68 44.8567 82.0683 44.4033 83.655 43.95C85.2983 43.4967 86.6867 43.1567 87.82 42.93C88.9533 42.6467 90.3417 42.335 91.985 41.995C93.685 41.5983 95.0167 41.2867 95.98 41.06C97.0567 40.7767 98.3317 40.465 99.805 40.125C101.278 39.785 102.383 39.53 103.12 39.36C103.857 39.19 104.622 38.9633 105.415 38.68C106.265 38.3967 106.917 38.1133 107.37 37.83C104.367 33.1833 99.465 30.86 92.665 30.86C90.3417 30.86 88.0183 31.1433 85.695 31.71C83.4283 32.22 81.2467 33.0417 79.15 34.175C77.11 35.2517 75.4383 36.555 74.135 38.085L66.06 29.84C67.8167 28.1967 69.7717 26.7233 71.925 25.42C74.135 24.1167 76.3733 23.04 78.64 22.19C80.9633 21.34 83.315 20.7167 85.695 20.32C88.075 19.8667 90.3983 19.64 92.665 19.64C102.865 19.64 110.572 22.2467 115.785 27.46C120.998 32.6733 123.605 40.4367 123.605 50.75V80.5ZM92.155 73.19C96.4617 73.19 100.287 72.1133 103.63 69.96C107.03 67.8067 109.325 65.1433 110.515 61.97V50.75C110.515 48.9367 110.402 47.35 110.175 45.99C109.722 46.33 109.212 46.67 108.645 47.01C108.078 47.2933 107.398 47.5767 106.605 47.86C105.868 48.1433 105.217 48.3983 104.65 48.625C104.14 48.795 103.318 49.0217 102.185 49.305C101.108 49.5883 100.343 49.815 99.89 49.985C99.4367 50.0983 98.5017 50.325 97.085 50.665C95.6683 51.005 94.7333 51.2317 94.28 51.345C93.77 51.4583 93.0333 51.6283 92.07 51.855C90.5967 52.2517 89.4917 52.535 88.755 52.705C88.075 52.875 87.1117 53.1583 85.865 53.555C84.6183 53.9517 83.6833 54.32 83.06 54.66C82.4933 55 81.785 55.4533 80.935 56.02C80.1417 56.53 79.5467 57.0967 79.15 57.72C78.7533 58.2867 78.4133 58.995 78.13 59.845C77.8467 60.695 77.705 61.63 77.705 62.65C77.705 65.5967 78.9517 68.09 81.445 70.13C83.995 72.17 87.565 73.19 92.155 73.19Z" fill="#1F1529"/>
<path fill-rule="evenodd" clip-rule="evenodd" d="M172.102 14.5C171.094 12.5729 169.63 11 168 11H62C58.9624 11 56.5 13.4625 56.5 16.5V81.5C56.5 84.5376 58.9624 87 62 87H168C171.038 87 173.5 83.0376 173.5 80H186.5C186.5 89.1127 177.113 98 168 98H62C52.8873 98 45.5 90.6127 45.5 81.5V16.5C45.5 7.38733 52.8873 0 62 0H168C175.872 0 183.95 7.08984 186.003 14.5H172.102Z" fill="#1F1529"/>
</svg>
